<svg width="265" height="42" viewBox="0 0 265 42" fill="none" xmlns="http://www.w3.org/2000/svg">
<path d="M255.929 20.3077C255.039 20.3077 254.234 20.1114 253.515 19.7189C252.795 19.3133 252.226 18.7376 251.807 17.9918C251.389 17.2329 251.179 16.3235 251.179 15.2637C251.179 14.217 251.389 13.3142 251.807 12.5553C252.239 11.7965 252.795 11.2142 253.475 10.8086C254.156 10.403 254.869 10.2002 255.615 10.2002C256.491 10.2002 257.224 10.3965 257.813 10.789C258.402 11.1684 258.846 11.7049 259.147 12.3983C259.448 13.0787 259.599 13.8703 259.599 14.7731C259.599 15.2441 259.566 15.6105 259.501 15.8721H253.377C253.482 16.7226 253.789 17.3834 254.3 17.8544C254.81 18.3254 255.451 18.5609 256.223 18.5609C256.642 18.5609 257.028 18.502 257.381 18.3843C257.747 18.2535 258.107 18.0768 258.46 17.8544L259.226 19.2675C258.768 19.5684 258.258 19.817 257.695 20.0133C257.132 20.2095 256.544 20.3077 255.929 20.3077ZM253.358 14.3413H257.636C257.636 13.5955 257.473 13.0133 257.146 12.5946C256.818 12.1628 256.328 11.9469 255.674 11.9469C255.111 11.9469 254.607 12.1563 254.162 12.575C253.731 12.9806 253.462 13.5693 253.358 14.3413Z" fill="white"/>
<path d="M244.677 20.0721V10.4357H246.542L246.699 12.1432H246.777C247.118 11.5151 247.53 11.0376 248.014 10.7105C248.498 10.3703 248.995 10.2002 249.506 10.2002C249.963 10.2002 250.33 10.2656 250.605 10.3965L250.212 12.3591C250.042 12.3067 249.885 12.2675 249.741 12.2413C249.597 12.2151 249.42 12.2021 249.211 12.2021C248.832 12.2021 248.433 12.3525 248.014 12.6535C247.595 12.9413 247.235 13.4516 246.934 14.1843V20.0721H244.677Z" fill="white"/>
<path d="M236.638 20.3085C235.604 20.3085 234.852 19.9748 234.381 19.3075C233.91 18.6402 233.674 17.6982 233.674 16.4814V10.4365H235.931V16.187C235.931 16.9851 236.049 17.5477 236.285 17.8748C236.52 18.2019 236.9 18.3655 237.423 18.3655C237.842 18.3655 238.208 18.2608 238.522 18.0515C238.849 17.8421 239.196 17.5019 239.562 17.0309V10.4365H241.819V20.073H239.974L239.798 18.6599H239.739C239.32 19.1571 238.862 19.5561 238.365 19.8571C237.868 20.158 237.292 20.3085 236.638 20.3085Z" fill="white"/>
<path d="M230.076 20.3065C228.963 20.3065 228.172 19.986 227.701 19.3449C227.243 18.6906 227.014 17.8467 227.014 16.8131V12.2206H225.64V10.5327L227.132 10.4346L227.406 7.80469H229.291V10.4346H231.744V12.2206H229.291V16.8131C229.291 17.9383 229.742 18.5009 230.645 18.5009C230.815 18.5009 230.992 18.4813 231.175 18.442C231.358 18.3897 231.515 18.3374 231.646 18.285L232.038 19.9533C231.777 20.0448 231.476 20.1234 231.135 20.1888C230.808 20.2673 230.455 20.3065 230.076 20.3065Z" fill="white"/>
<path d="M216.044 23.8796V10.4357H217.908L218.065 11.4563H218.144C218.549 11.1161 219.001 10.8217 219.498 10.5731C220.008 10.3245 220.525 10.2002 221.048 10.2002C222.252 10.2002 223.181 10.6451 223.835 11.5348C224.503 12.4245 224.836 13.6151 224.836 15.1067C224.836 16.2058 224.64 17.1478 224.247 17.9329C223.855 18.7049 223.345 19.2936 222.717 19.6992C222.102 20.1048 221.434 20.3077 220.715 20.3077C220.296 20.3077 219.877 20.2161 219.459 20.0329C219.04 19.8366 218.634 19.5749 218.242 19.2478L218.301 20.8572V23.8796H216.044ZM220.244 18.4432C220.885 18.4432 221.421 18.1619 221.853 17.5992C222.285 17.0366 222.501 16.2123 222.501 15.1264C222.501 14.1581 222.337 13.4058 222.01 12.8693C221.683 12.3329 221.153 12.0647 220.42 12.0647C219.74 12.0647 219.033 12.4245 218.301 13.1441V17.6385C218.654 17.9264 218.994 18.1357 219.321 18.2665C219.648 18.3843 219.956 18.4432 220.244 18.4432Z" fill="white"/>
<path d="M208.259 20.3077C207.421 20.3077 206.735 20.046 206.198 19.5226C205.675 18.9992 205.413 18.3189 205.413 17.4815C205.413 16.4478 205.864 15.6497 206.767 15.0871C207.67 14.5114 209.109 14.1189 211.085 13.9095C211.072 13.3993 210.935 12.9609 210.673 12.5946C210.424 12.2151 209.973 12.0254 209.319 12.0254C208.848 12.0254 208.383 12.117 207.925 12.3002C207.48 12.4834 207.042 12.7058 206.61 12.9675L205.786 11.4563C206.322 11.1161 206.924 10.8217 207.592 10.5731C208.272 10.3245 208.992 10.2002 209.75 10.2002C210.954 10.2002 211.85 10.56 212.439 11.2796C213.041 11.9862 213.342 13.0133 213.342 14.3609V20.0721H211.478L211.321 19.0123H211.242C210.81 19.3787 210.346 19.6862 209.849 19.9348C209.364 20.1834 208.835 20.3077 208.259 20.3077ZM208.985 18.5413C209.378 18.5413 209.731 18.4497 210.045 18.2665C210.372 18.0703 210.719 17.8086 211.085 17.4815V15.3226C209.777 15.4927 208.867 15.7478 208.357 16.088C207.847 16.4151 207.592 16.8207 207.592 17.3049C207.592 17.7366 207.722 18.0506 207.984 18.2469C208.246 18.4432 208.579 18.5413 208.985 18.5413Z" fill="white"/>
<path d="M199.935 20.3065C198.862 20.3065 197.888 20.0514 197.011 19.5411C196.134 19.0308 195.434 18.285 194.911 17.3037C194.401 16.3093 194.146 15.1056 194.146 13.6925C194.146 12.2925 194.407 11.0953 194.931 10.1009C195.467 9.09345 196.18 8.32803 197.07 7.80467C197.96 7.26822 198.941 7 200.014 7C200.825 7 201.545 7.16355 202.173 7.49065C202.801 7.81775 203.317 8.19719 203.723 8.62897L202.506 10.1009C202.179 9.76074 201.813 9.49252 201.407 9.29626C201.015 9.08691 200.57 8.98224 200.073 8.98224C199.379 8.98224 198.758 9.17196 198.208 9.5514C197.672 9.91775 197.246 10.4477 196.932 11.1411C196.631 11.8346 196.481 12.6654 196.481 13.6336C196.481 15.0991 196.802 16.2505 197.443 17.0878C198.084 17.9121 198.941 18.3243 200.014 18.3243C200.589 18.3243 201.1 18.2065 201.545 17.971C201.989 17.7224 202.395 17.4018 202.761 17.0093L203.978 18.442C203.455 19.0439 202.853 19.5084 202.173 19.8355C201.505 20.1495 200.76 20.3065 199.935 20.3065Z" fill="white"/>
<path d="M183.847 24.331C183.088 24.331 182.401 24.2394 181.786 24.0562C181.184 23.8731 180.707 23.5918 180.353 23.2123C180.013 22.846 179.843 22.3815 179.843 21.8189C179.843 21.0207 180.301 20.3338 181.217 19.7581V19.6796C180.968 19.5226 180.759 19.3133 180.589 19.0516C180.432 18.7899 180.353 18.4628 180.353 18.0703C180.353 17.6908 180.458 17.3506 180.667 17.0497C180.89 16.7357 181.138 16.4806 181.413 16.2843V16.2058C181.086 15.9572 180.792 15.6105 180.53 15.1656C180.281 14.7207 180.157 14.217 180.157 13.6544C180.157 12.9086 180.334 12.2806 180.687 11.7703C181.04 11.26 181.505 10.874 182.08 10.6123C182.669 10.3376 183.297 10.2002 183.965 10.2002C184.226 10.2002 184.475 10.2264 184.71 10.2787C184.959 10.318 185.181 10.3703 185.378 10.4357H188.832V12.1039H187.065C187.222 12.2871 187.353 12.5226 187.458 12.8105C187.563 13.0852 187.615 13.3927 187.615 13.7329C187.615 14.4394 187.451 15.0413 187.124 15.5385C186.797 16.0226 186.359 16.389 185.809 16.6376C185.26 16.8862 184.645 17.0105 183.965 17.0105C183.755 17.0105 183.539 16.9908 183.317 16.9516C183.094 16.9123 182.872 16.8469 182.65 16.7553C182.506 16.8862 182.388 17.017 182.296 17.1478C182.218 17.2787 182.179 17.4553 182.179 17.6778C182.179 17.9525 182.29 18.1684 182.512 18.3254C182.748 18.4824 183.16 18.5609 183.749 18.5609H185.456C186.621 18.5609 187.497 18.7506 188.086 19.1301C188.688 19.4964 188.989 20.0983 188.989 20.9357C188.989 21.5637 188.779 22.1329 188.361 22.6432C187.942 23.1665 187.347 23.5787 186.575 23.8796C185.803 24.1805 184.893 24.331 183.847 24.331ZM183.965 15.5974C184.422 15.5974 184.815 15.4273 185.142 15.0871C185.469 14.7469 185.633 14.2693 185.633 13.6544C185.633 13.0525 185.469 12.588 185.142 12.2609C184.828 11.9208 184.436 11.7507 183.965 11.7507C183.493 11.7507 183.094 11.9142 182.767 12.2413C182.44 12.5684 182.277 13.0394 182.277 13.6544C182.277 14.2693 182.44 14.7469 182.767 15.0871C183.094 15.4273 183.493 15.5974 183.965 15.5974ZM184.2 22.8591C184.972 22.8591 185.6 22.702 186.084 22.388C186.568 22.074 186.81 21.7142 186.81 21.3086C186.81 20.9291 186.66 20.674 186.359 20.5432C186.071 20.4123 185.652 20.3469 185.103 20.3469H183.788C183.265 20.3469 182.826 20.3011 182.473 20.2095C181.976 20.589 181.727 21.0142 181.727 21.4852C181.727 21.917 181.95 22.2506 182.394 22.4862C182.839 22.7348 183.441 22.8591 184.2 22.8591Z" fill="white"/>
<path d="M172.451 20.3085C171.417 20.3085 170.665 19.9748 170.194 19.3075C169.723 18.6402 169.487 17.6982 169.487 16.4814V10.4365H171.744V16.187C171.744 16.9851 171.862 17.5477 172.097 17.8748C172.333 18.2019 172.712 18.3655 173.236 18.3655C173.654 18.3655 174.021 18.2608 174.335 18.0515C174.662 17.8421 175.009 17.5019 175.375 17.0309V10.4365H177.632V20.073H175.787L175.61 18.6599H175.552C175.133 19.1571 174.675 19.5561 174.178 19.8571C173.681 20.158 173.105 20.3085 172.451 20.3085Z" fill="white"/>
<path d="M158.071 20.0718V7.23633H162.173C163.063 7.23633 163.848 7.33446 164.528 7.53072C165.222 7.72698 165.765 8.06063 166.157 8.53165C166.563 8.9896 166.766 9.61109 166.766 10.3961C166.766 10.998 166.609 11.5672 166.295 12.1036C165.981 12.627 165.542 12.9868 164.98 13.183V13.2616C165.686 13.4186 166.268 13.7522 166.726 14.2625C167.197 14.7597 167.433 15.4401 167.433 16.3036C167.433 17.1541 167.217 17.8606 166.785 18.4232C166.367 18.9858 165.784 19.4045 165.039 19.6793C164.293 19.941 163.449 20.0718 162.507 20.0718H158.071ZM160.348 12.5354H161.977C162.867 12.5354 163.514 12.3718 163.92 12.0447C164.325 11.7176 164.528 11.2793 164.528 10.7298C164.528 10.1017 164.319 9.65688 163.9 9.3952C163.482 9.13352 162.854 9.00268 162.016 9.00268H160.348V12.5354ZM160.348 18.3055H162.271C163.213 18.3055 163.94 18.1354 164.45 17.7952C164.96 17.4419 165.215 16.9055 165.215 16.1858C165.215 15.5055 164.967 15.0148 164.469 14.7139C163.972 14.3999 163.24 14.2429 162.271 14.2429H160.348V18.3055Z" fill="white"/>
<path fill-rule="evenodd" clip-rule="evenodd" d="M26 13C26 20.1799 20.1799 26 13 26C5.82033 26 0 20.1799 0 13C0 5.82033 5.82033 0 13 0C20.1799 0 26 5.82033 26 13Z" fill="#ECB360"/>
<path fill-rule="evenodd" clip-rule="evenodd" d="M22.5333 11.7C22.5333 18.1617 17.4888 23.4 11.2667 23.4C5.04431 23.4 0 18.1617 0 11.7C0 5.23832 5.04431 0 11.2667 0C17.4888 0 22.5333 5.23832 22.5333 11.7Z" fill="#D76835"/>
<path fill-rule="evenodd" clip-rule="evenodd" d="M23.3996 10.3999C23.3996 16.1437 18.9374 20.8 13.4326 20.8C7.92856 20.8 3.46631 16.1437 3.46631 10.3999C3.46631 4.65627 7.92856 0 13.4326 0C18.9374 0 23.3996 4.65627 23.3996 10.3999Z" fill="#D33A41"/>
<path fill-rule="evenodd" clip-rule="evenodd" d="M22.5335 11.2678C22.5335 16.5327 18.4592 20.801 13.4334 20.801C8.4076 20.801 4.3335 16.5327 4.3335 11.2678C4.3335 6.00248 8.4076 1.73438 13.4334 1.73438C18.4592 1.73438 22.5335 6.00248 22.5335 11.2678Z" fill="#B6CB46"/>
<path fill-rule="evenodd" clip-rule="evenodd" d="M21.6668 12.1324C21.6668 16.9188 17.7865 20.7992 13 20.7992C8.2138 20.7992 4.3335 16.9188 4.3335 12.1324C4.3335 7.34588 8.2138 3.46582 13 3.46582C17.7865 3.46582 21.6668 7.34588 21.6668 12.1324Z" fill="#66AD4A"/>
<path fill-rule="evenodd" clip-rule="evenodd" d="M18.2002 10.3992C18.2002 14.2283 15.096 17.3325 11.2668 17.3325C7.43743 17.3325 4.3335 14.2283 4.3335 10.3992C4.3335 6.56999 7.43743 3.46582 11.2668 3.46582C15.096 3.46582 18.2002 6.56999 18.2002 10.3992Z" fill="#AED7DC"/>
<path fill-rule="evenodd" clip-rule="evenodd" d="M19.0664 9.53249C19.0664 12.8829 16.3504 15.5992 12.9996 15.5992C9.64892 15.5992 6.93311 12.8829 6.93311 9.53249C6.93311 6.18182 9.64892 3.46582 12.9996 3.46582C16.3504 3.46582 19.0664 6.18182 19.0664 9.53249Z" fill="#5BB1CF"/>
<path fill-rule="evenodd" clip-rule="evenodd" d="M19.0665 9.96621C19.0665 13.0774 16.7385 15.5997 13.8665 15.5997C10.9946 15.5997 8.6665 13.0774 8.6665 9.96621C8.6665 6.85526 10.9946 4.33301 13.8665 4.33301C16.7385 4.33301 19.0665 6.85526 19.0665 9.96621Z" fill="#25A8C3"/>
<path fill-rule="evenodd" clip-rule="evenodd" d="M12.9997 15.6007C10.6067 15.6007 8.6665 13.4665 8.6665 10.8339C8.6665 8.20133 10.6067 6.06738 12.9997 6.06738C15.393 6.06738 17.3332 8.20133 17.3332 10.8339C17.3332 13.4665 15.393 15.6007 12.9997 15.6007Z" fill="#1B1A18"/>
<path fill-rule="evenodd" clip-rule="evenodd" d="M15.3649 9.45769C14.9527 10.1473 14.1422 10.5462 13.5543 10.348C12.9664 10.15 12.8241 9.43002 13.236 8.74012C13.6483 8.05023 14.4588 7.6516 15.0467 7.8496C15.6346 8.0476 15.7769 8.76755 15.3649 9.45769Z" fill="#FFFFFE"/>
<path fill-rule="evenodd" clip-rule="evenodd" d="M132.094 17.8756C131.887 17.2943 131.783 16.5577 131.783 15.5693C131.783 14.5809 131.887 13.8446 132.094 13.263C132.674 11.5964 134.207 10.6855 136.216 10.6855C137.708 10.6855 138.889 11.2474 139.676 12.1391C139.738 12.2166 139.759 12.333 139.655 12.4106L138.35 13.4761C138.247 13.5536 138.143 13.5345 138.06 13.4375C137.563 12.9143 137.045 12.6237 136.216 12.6237C135.326 12.6237 134.642 13.0308 134.352 13.8446C134.186 14.3098 134.145 14.8524 134.145 15.5693C134.145 16.2865 134.186 16.8486 134.352 17.3138C134.642 18.1082 135.326 18.5152 136.216 18.5152C137.045 18.5152 137.563 18.2246 138.06 17.7014C138.143 17.6044 138.247 17.6044 138.35 17.6819L139.655 18.7478C139.759 18.8253 139.738 18.9223 139.676 19.019C138.889 19.8912 137.708 20.4534 136.216 20.4534C134.207 20.4534 132.674 19.5425 132.094 17.8756Z" fill="white"/>
<path fill-rule="evenodd" clip-rule="evenodd" d="M147.764 20.2385C147.619 20.2385 147.516 20.1804 147.433 20.0445L144.905 16.1297L143.559 17.5832V20.0445C143.559 20.1609 143.476 20.2385 143.352 20.2385H141.446C141.322 20.2385 141.239 20.1609 141.239 20.0445V7.25322C141.239 7.1371 141.322 7.05957 141.446 7.05957H143.352C143.476 7.05957 143.559 7.1371 143.559 7.25322V14.8507L146.977 11.0909C147.101 10.955 147.205 10.8969 147.371 10.8969H149.484C149.608 10.8969 149.649 11.013 149.566 11.0909L146.397 14.5016L150.043 20.0445C150.105 20.122 150.064 20.2385 149.94 20.2385H147.764Z" fill="white"/>
<path fill-rule="evenodd" clip-rule="evenodd" d="M36.6888 18.2228H39.6306C40.9979 18.2228 41.7643 17.4862 41.7643 16.3817C41.7643 15.2963 40.9979 14.56 39.6306 14.56H36.6888C36.6062 14.56 36.5645 14.5986 36.5645 14.6761V18.1064C36.5645 18.1839 36.6062 18.2228 36.6888 18.2228ZM39.5063 12.5444C40.7493 12.5444 41.5158 11.8466 41.5158 10.8194C41.5158 9.77294 40.7493 9.07522 39.5063 9.07522H36.6888C36.6062 9.07522 36.5645 9.11382 36.5645 9.19134V12.4279C36.5645 12.5055 36.6062 12.5444 36.6888 12.5444H39.5063ZM34.1201 7.25322C34.1201 7.1371 34.2031 7.05957 34.327 7.05957H39.5685C42.5516 7.05957 43.9602 8.45502 43.9602 10.5673C43.9602 12.0598 43.2146 12.9125 42.3235 13.3582V13.3971C43.1937 13.7069 44.2087 14.7537 44.2087 16.3622C44.2087 18.9786 42.4478 20.2385 39.3612 20.2385H34.327C34.2031 20.2385 34.1201 20.1609 34.1201 20.0445V7.25322Z" fill="white"/>
<path fill-rule="evenodd" clip-rule="evenodd" d="M45.9273 20.2402C45.8027 20.2402 45.7197 20.1627 45.7197 20.0463V11.0926C45.7197 10.9762 45.8027 10.8987 45.9273 10.8987H47.833C47.9572 10.8987 48.0402 10.9762 48.0402 11.0926V11.887H48.061C48.5373 11.1702 49.3866 10.6855 50.6505 10.6855C51.4374 10.6855 52.2247 10.9762 52.7426 11.4608C52.8463 11.5575 52.8672 11.6353 52.7839 11.732L51.686 13.0308C51.6033 13.1274 51.4996 13.1469 51.3961 13.0694C50.9403 12.7979 50.4638 12.6237 49.9254 12.6237C48.6202 12.6237 48.0402 13.4956 48.0402 14.988V20.0463C48.0402 20.1627 47.9572 20.2402 47.833 20.2402H45.9273Z" fill="white"/>
<path fill-rule="evenodd" clip-rule="evenodd" d="M59.1532 17.2943C59.3191 16.8097 59.3604 16.364 59.3604 15.5693C59.3604 14.7749 59.3191 14.3484 59.1532 13.8446C58.863 13.0694 58.2212 12.6237 57.2888 12.6237C56.3565 12.6237 55.6935 13.0694 55.4036 13.8446C55.238 14.3484 55.1964 14.7749 55.1964 15.5693C55.1964 16.364 55.238 16.8097 55.4036 17.2943C55.6935 18.0695 56.3565 18.5152 57.2888 18.5152C58.2212 18.5152 58.863 18.0695 59.1532 17.2943ZM53.1665 17.8756C52.9384 17.2168 52.835 16.5966 52.835 15.5693C52.835 14.5423 52.9384 13.9221 53.1665 13.263C53.7257 11.6353 55.2585 10.6855 57.2888 10.6855C59.2983 10.6855 60.8312 11.6353 61.3907 13.263C61.6184 13.9221 61.7222 14.5423 61.7222 15.5693C61.7222 16.5966 61.6184 17.2168 61.3907 17.8756C60.8312 19.5036 59.2983 20.4534 57.2888 20.4534C55.2585 20.4534 53.7257 19.5036 53.1665 17.8756Z" fill="white"/>
<path fill-rule="evenodd" clip-rule="evenodd" d="M71.7713 20.24C71.6467 20.24 71.564 20.1625 71.5224 20.046L69.5959 14.077H69.5546L67.6072 20.046C67.5656 20.1625 67.483 20.24 67.3584 20.24H65.6599C65.5353 20.24 65.4527 20.1625 65.4114 20.046L62.2624 11.0924C62.2207 10.976 62.2832 10.8984 62.4074 10.8984H64.3961C64.5412 10.8984 64.6241 10.9565 64.6654 11.0924L66.592 17.2555H66.6336L68.5393 11.0924C68.5809 10.976 68.6844 10.8984 68.8086 10.8984H70.3002C70.4245 10.8984 70.5282 10.976 70.5695 11.0924L72.5998 17.2555H72.6411L74.4642 11.0924C74.5055 10.9565 74.5885 10.8984 74.7336 10.8984H76.7222C76.8465 10.8984 76.9086 10.976 76.8673 11.0924L73.7183 20.046C73.6769 20.1625 73.594 20.24 73.4697 20.24H71.7713Z" fill="white"/>
<path fill-rule="evenodd" clip-rule="evenodd" d="M77.2763 18.9804C77.1937 18.9029 77.1937 18.7867 77.2763 18.7092L78.4572 17.5463C78.5402 17.4688 78.6644 17.4688 78.7474 17.5463C79.4725 18.1665 80.6326 18.6122 81.6684 18.6122C82.8906 18.6122 83.5119 18.1471 83.5119 17.5074C83.5119 16.9453 83.1599 16.5966 81.8548 16.4801L80.7773 16.3835C78.7474 16.1895 77.7113 15.2206 77.7113 13.6312C77.7113 11.829 79.0994 10.6855 81.5854 10.6855C83.1391 10.6855 84.4443 11.1702 85.335 11.829C85.4388 11.9065 85.4387 12.0226 85.3766 12.1001L84.3613 13.2439C84.2787 13.3405 84.1749 13.3405 84.0715 13.2825C83.4498 12.8754 82.4556 12.5072 81.4612 12.5072C80.4667 12.5072 79.9488 12.9143 79.9488 13.4761C79.9488 14.0191 80.3011 14.3484 81.5854 14.4648L82.6625 14.5618C84.7549 14.7554 85.7494 15.7633 85.7494 17.2943C85.7494 19.1549 84.2992 20.4534 81.5646 20.4534C79.5138 20.4534 78.1052 19.6976 77.2763 18.9804Z" fill="white"/>
<path fill-rule="evenodd" clip-rule="evenodd" d="M93.366 13.7282C93.0967 12.9724 92.3507 12.5267 91.4187 12.5267C90.4659 12.5267 89.7199 12.9724 89.4509 13.7282C89.3676 13.9607 89.3263 14.1933 89.3263 14.5229C89.3263 14.6004 89.3676 14.6393 89.4509 14.6393H93.366C93.449 14.6393 93.4903 14.6004 93.4903 14.5229C93.4903 14.1933 93.449 13.9607 93.366 13.7282ZM87.3377 17.8561C87.1304 17.2557 86.9854 16.5385 86.9854 15.5693C86.9854 14.6004 87.1099 13.8641 87.3168 13.263C87.8761 11.6353 89.4089 10.6855 91.3979 10.6855C93.449 10.6855 94.9405 11.6739 95.4998 13.263C95.7278 13.9221 95.8313 14.5618 95.8313 16.0734C95.8313 16.1895 95.7483 16.267 95.6035 16.267H89.4509C89.3676 16.267 89.3263 16.3059 89.3263 16.3835C89.3263 16.6546 89.3884 16.8872 89.4714 17.1003C89.8029 18.0115 90.5901 18.5152 91.7086 18.5152C92.8273 18.5152 93.5528 18.1276 94.0495 17.6239C94.1533 17.5269 94.2567 17.5074 94.3602 17.5849L95.5827 18.5928C95.6862 18.6703 95.6862 18.7673 95.6035 18.8643C94.7541 19.7942 93.3452 20.4534 91.5017 20.4534C89.3884 20.4534 87.8969 19.4845 87.3377 17.8561Z" fill="white"/>
<path fill-rule="evenodd" clip-rule="evenodd" d="M97.5497 20.2402C97.4257 20.2402 97.3428 20.1627 97.3428 20.0463V11.0926C97.3428 10.9762 97.4257 10.8987 97.5497 10.8987H99.4557C99.5803 10.8987 99.6629 10.9762 99.6629 11.0926V11.887H99.6837C100.16 11.1702 101.009 10.6855 102.273 10.6855C103.06 10.6855 103.847 10.9762 104.365 11.4608C104.469 11.5575 104.49 11.6353 104.407 11.732L103.309 13.0308C103.226 13.1274 103.123 13.1469 103.019 13.0694C102.563 12.7979 102.087 12.6237 101.548 12.6237C100.243 12.6237 99.6629 13.4956 99.6629 14.988V20.0463C99.6629 20.1627 99.5803 20.2402 99.4557 20.2402H97.5497Z" fill="white"/>
<path fill-rule="evenodd" clip-rule="evenodd" d="M104.763 18.7077C104.68 18.6301 104.639 18.5137 104.722 18.4167L106.006 17.0213C106.089 16.9246 106.214 16.9246 106.296 17.0021C107.208 17.6804 108.555 18.3972 110.129 18.3972C111.807 18.3972 112.78 17.6029 112.78 16.4984C112.78 15.5486 112.159 14.9284 110.212 14.6764L109.466 14.5794C106.752 14.2307 105.219 13.0094 105.219 10.8196C105.219 8.43578 107.083 6.84668 109.984 6.84668C111.745 6.84668 113.423 7.36989 114.541 8.16428C114.645 8.24213 114.666 8.31965 114.583 8.43578L113.588 9.86983C113.506 9.96682 113.402 9.98628 113.298 9.92821C112.159 9.23049 111.102 8.90093 109.922 8.90093C108.492 8.90093 107.705 9.63757 107.705 10.6645C107.705 11.5754 108.389 12.1956 110.295 12.4476L111.041 12.5446C113.754 12.8933 115.246 14.0948 115.246 16.3625C115.246 18.7077 113.443 20.4518 109.942 20.4518C107.871 20.4518 105.861 19.6766 104.763 18.7077Z" fill="white"/>
<path fill-rule="evenodd" clip-rule="evenodd" d="M119.539 20.4033C117.529 20.4033 116.763 19.4924 116.763 17.6704V12.7481C116.763 12.6706 116.721 12.6317 116.638 12.6317H115.975C115.851 12.6317 115.768 12.5541 115.768 12.4377V11.1392C115.768 11.0231 115.851 10.9456 115.975 10.9456H116.638C116.721 10.9456 116.763 10.9066 116.763 10.8291V8.2708C116.763 8.15467 116.846 8.07715 116.97 8.07715H118.876C119 8.07715 119.083 8.15467 119.083 8.2708V10.8291C119.083 10.9066 119.124 10.9456 119.207 10.9456H120.533C120.657 10.9456 120.74 11.0231 120.74 11.1392V12.4377C120.74 12.5541 120.657 12.6317 120.533 12.6317H119.207C119.124 12.6317 119.083 12.6706 119.083 12.7481V17.5932C119.083 18.252 119.373 18.4652 120.015 18.4652H120.533C120.657 18.4652 120.74 18.5427 120.74 18.6591V20.2093C120.74 20.3258 120.657 20.4033 120.533 20.4033H119.539Z" fill="white"/>
<path fill-rule="evenodd" clip-rule="evenodd" d="M128.076 17.1003V16.3835C128.076 16.3059 128.034 16.267 127.951 16.267H126.294C124.803 16.267 124.14 16.6546 124.14 17.5269C124.14 18.3021 124.74 18.6897 125.859 18.6897C127.289 18.6897 128.076 18.1665 128.076 17.1003ZM128.324 20.2402C128.2 20.2402 128.117 20.1627 128.117 20.0463V19.368H128.097C127.62 20.0077 126.688 20.4534 125.279 20.4534C123.456 20.4534 121.923 19.562 121.923 17.6044C121.923 15.5693 123.456 14.6393 125.921 14.6393H127.951C128.034 14.6393 128.076 14.6004 128.076 14.5229V14.0772C128.076 13.011 127.537 12.5267 125.859 12.5267C124.74 12.5267 124.057 12.8173 123.58 13.1663C123.477 13.2439 123.353 13.2244 123.29 13.1274L122.524 11.8484C122.462 11.7514 122.483 11.6544 122.565 11.5964C123.373 11.0537 124.471 10.6855 126.108 10.6855C129.153 10.6855 130.272 11.6544 130.272 13.9416V20.0463C130.272 20.1627 130.189 20.2402 130.065 20.2402H128.324Z" fill="white"/>
<path d="M161.31 33.5455V34.3977H158.227V33.5455H161.31ZM159.072 39V32.9134C159.072 32.5724 159.147 32.2895 159.296 32.0646C159.445 31.8374 159.643 31.6681 159.889 31.5568C160.135 31.4432 160.403 31.3864 160.692 31.3864C160.905 31.3864 161.087 31.4041 161.239 31.4396C161.39 31.4728 161.503 31.5036 161.576 31.532L161.327 32.3913C161.278 32.3771 161.214 32.3606 161.136 32.3416C161.058 32.3203 160.963 32.3097 160.852 32.3097C160.594 32.3097 160.409 32.3736 160.298 32.5014C160.189 32.6293 160.134 32.8139 160.134 33.0554V39H159.072ZM164.488 39.1101C163.977 39.1101 163.53 38.9929 163.149 38.7585C162.768 38.5241 162.472 38.1963 162.261 37.7749C162.051 37.3535 161.945 36.861 161.945 36.2976C161.945 35.7318 162.051 35.237 162.261 34.8132C162.472 34.3894 162.768 34.0604 163.149 33.826C163.53 33.5916 163.977 33.4744 164.488 33.4744C164.999 33.4744 165.446 33.5916 165.827 33.826C166.208 34.0604 166.504 34.3894 166.714 34.8132C166.925 35.237 167.031 35.7318 167.031 36.2976C167.031 36.861 166.925 37.3535 166.714 37.7749C166.504 38.1963 166.208 38.5241 165.827 38.7585C165.446 38.9929 164.999 39.1101 164.488 39.1101ZM164.491 38.2188C164.823 38.2188 165.098 38.1312 165.315 37.956C165.533 37.7808 165.694 37.5476 165.798 37.2564C165.905 36.9652 165.958 36.6444 165.958 36.294C165.958 35.946 165.905 35.6264 165.798 35.3352C165.694 35.0417 165.533 34.8061 165.315 34.6286C165.098 34.451 164.823 34.3622 164.491 34.3622C164.158 34.3622 163.881 34.451 163.661 34.6286C163.443 34.8061 163.281 35.0417 163.174 35.3352C163.07 35.6264 163.018 35.946 163.018 36.294C163.018 36.6444 163.07 36.9652 163.174 37.2564C163.281 37.5476 163.443 37.7808 163.661 37.956C163.881 38.1312 164.158 38.2188 164.491 38.2188ZM168.216 39V33.5455H169.242V34.4119H169.299C169.398 34.1184 169.573 33.8875 169.824 33.7195C170.078 33.549 170.364 33.4638 170.684 33.4638C170.75 33.4638 170.828 33.4661 170.918 33.4709C171.01 33.4756 171.083 33.4815 171.135 33.4886V34.5043C171.092 34.4924 171.016 34.4794 170.907 34.4652C170.799 34.4486 170.69 34.4403 170.581 34.4403C170.33 34.4403 170.106 34.4936 169.91 34.6001C169.715 34.7043 169.562 34.8499 169.448 35.0369C169.334 35.2216 169.278 35.4323 169.278 35.669V39H168.216ZM172.054 39V33.5455H173.073V34.4332H173.14C173.254 34.1326 173.44 33.8982 173.698 33.7301C173.956 33.5597 174.265 33.4744 174.625 33.4744C174.989 33.4744 175.295 33.5597 175.541 33.7301C175.789 33.9006 175.973 34.1349 176.091 34.4332H176.148C176.278 34.142 176.485 33.91 176.77 33.7372C177.054 33.562 177.392 33.4744 177.785 33.4744C178.28 33.4744 178.684 33.6295 178.996 33.9396C179.311 34.2498 179.468 34.7173 179.468 35.3423V39H178.407V35.4418C178.407 35.0724 178.306 34.8049 178.105 34.6392C177.904 34.4735 177.663 34.3906 177.384 34.3906C177.038 34.3906 176.77 34.4972 176.578 34.7102C176.386 34.9209 176.29 35.192 176.29 35.5234V39H175.232V35.3743C175.232 35.0784 175.14 34.8404 174.955 34.6605C174.77 34.4806 174.53 34.3906 174.234 34.3906C174.033 34.3906 173.847 34.4439 173.676 34.5504C173.508 34.6546 173.372 34.8002 173.268 34.9872C173.166 35.1742 173.115 35.3909 173.115 35.6371V39H172.054ZM183.242 39.1101C182.705 39.1101 182.242 38.9953 181.854 38.7656C181.468 38.5336 181.17 38.2081 180.959 37.7891C180.751 37.3677 180.646 36.8741 180.646 36.3082C180.646 35.7495 180.751 35.2571 180.959 34.831C181.17 34.4048 181.463 34.0722 181.84 33.8331C182.218 33.594 182.661 33.4744 183.168 33.4744C183.476 33.4744 183.774 33.5253 184.063 33.6271C184.352 33.7289 184.611 33.8887 184.84 34.1065C185.07 34.3243 185.251 34.6072 185.384 34.9553C185.516 35.3009 185.583 35.7211 185.583 36.2159V36.5923H181.247V35.7969H184.542C184.542 35.5175 184.485 35.2701 184.372 35.0547C184.258 34.8369 184.098 34.6652 183.892 34.5398C183.689 34.4143 183.45 34.3516 183.175 34.3516C182.877 34.3516 182.616 34.425 182.394 34.5717C182.173 34.7161 182.003 34.9055 181.882 35.1399C181.764 35.3719 181.705 35.6241 181.705 35.8963V36.5178C181.705 36.8823 181.769 37.1925 181.896 37.4482C182.027 37.7038 182.208 37.8991 182.44 38.0341C182.672 38.1667 182.943 38.233 183.253 38.233C183.454 38.233 183.638 38.2045 183.803 38.1477C183.969 38.0885 184.112 38.0009 184.233 37.8849C184.354 37.7689 184.446 37.6257 184.51 37.4553L185.515 37.6364C185.435 37.9323 185.29 38.1915 185.082 38.4141C184.876 38.6342 184.617 38.8059 184.304 38.929C183.994 39.0497 183.64 39.1101 183.242 39.1101ZM186.761 39V33.5455H187.787V34.4119H187.844C187.943 34.1184 188.118 33.8875 188.369 33.7195C188.623 33.549 188.909 33.4638 189.229 33.4638C189.295 33.4638 189.373 33.4661 189.463 33.4709C189.555 33.4756 189.628 33.4815 189.68 33.4886V34.5043C189.637 34.4924 189.561 34.4794 189.452 34.4652C189.344 34.4486 189.235 34.4403 189.126 34.4403C188.875 34.4403 188.651 34.4936 188.455 34.6001C188.26 34.7043 188.107 34.8499 187.993 35.0369C187.879 35.2216 187.822 35.4323 187.822 35.669V39H186.761ZM191.66 31.7273V39H190.599V31.7273H191.66ZM193.76 41.0455C193.601 41.0455 193.457 41.0324 193.327 41.0064C193.196 40.9827 193.099 40.9567 193.036 40.9283L193.291 40.0582C193.485 40.1103 193.658 40.1328 193.81 40.1257C193.961 40.1186 194.095 40.0618 194.211 39.9553C194.329 39.8487 194.433 39.6747 194.523 39.4332L194.655 39.071L192.659 33.5455H193.795L195.177 37.7784H195.234L196.615 33.5455H197.755L195.507 39.728C195.403 40.0121 195.27 40.2524 195.109 40.4489C194.948 40.6477 194.757 40.7969 194.534 40.8963C194.312 40.9957 194.054 41.0455 193.76 41.0455ZM201.485 39V31.7273H204.148C204.664 31.7273 205.091 31.8125 205.43 31.983C205.768 32.151 206.022 32.3795 206.19 32.6683C206.358 32.9548 206.442 33.2779 206.442 33.6378C206.442 33.9408 206.386 34.1965 206.275 34.4048C206.164 34.6108 206.015 34.7765 205.828 34.902C205.643 35.0251 205.439 35.1151 205.217 35.1719V35.2429C205.458 35.2547 205.694 35.3329 205.923 35.4773C206.155 35.6193 206.347 35.8217 206.499 36.0845C206.65 36.3473 206.726 36.6669 206.726 37.0433C206.726 37.415 206.638 37.7488 206.463 38.0447C206.29 38.3383 206.023 38.5715 205.661 38.7443C205.298 38.9148 204.836 39 204.272 39H201.485ZM202.582 38.0589H204.166C204.691 38.0589 205.068 37.9571 205.295 37.7536C205.522 37.55 205.636 37.2955 205.636 36.9901C205.636 36.7604 205.578 36.5497 205.462 36.358C205.346 36.1662 205.18 36.0135 204.965 35.8999C204.752 35.7862 204.498 35.7294 204.205 35.7294H202.582V38.0589ZM202.582 34.8736H204.052C204.298 34.8736 204.52 34.8262 204.716 34.7315C204.915 34.6368 205.072 34.5043 205.188 34.3338C205.307 34.161 205.366 33.9574 205.366 33.723C205.366 33.4223 205.261 33.1702 205.05 32.9666C204.839 32.763 204.516 32.6612 204.08 32.6612H202.582V34.8736ZM207.942 39V33.5455H209.004V39H207.942ZM208.479 32.7038C208.294 32.7038 208.135 32.6423 208.003 32.5192C207.872 32.3937 207.807 32.2446 207.807 32.0717C207.807 31.8965 207.872 31.7474 208.003 31.6243C208.135 31.4988 208.294 31.4361 208.479 31.4361C208.663 31.4361 208.821 31.4988 208.951 31.6243C209.083 31.7474 209.15 31.8965 209.15 32.0717C209.15 32.2446 209.083 32.3937 208.951 32.5192C208.821 32.6423 208.663 32.7038 208.479 32.7038ZM210.433 39V33.5455H211.459V34.4119H211.516C211.615 34.1184 211.79 33.8875 212.041 33.7195C212.295 33.549 212.581 33.4638 212.901 33.4638C212.967 33.4638 213.045 33.4661 213.135 33.4709C213.227 33.4756 213.299 33.4815 213.352 33.4886V34.5043C213.309 34.4924 213.233 34.4794 213.124 34.4652C213.015 34.4486 212.906 34.4403 212.798 34.4403C212.547 34.4403 212.323 34.4936 212.126 34.6001C211.932 34.7043 211.778 34.8499 211.665 35.0369C211.551 35.2216 211.494 35.4323 211.494 35.669V39H210.433ZM216.117 39.1065C215.677 39.1065 215.284 38.9941 214.938 38.7692C214.595 38.5419 214.325 38.2187 214.128 37.7997C213.934 37.3783 213.837 36.8729 213.837 36.2834C213.837 35.6939 213.935 35.1896 214.132 34.7706C214.331 34.3516 214.603 34.0308 214.949 33.8082C215.294 33.5857 215.686 33.4744 216.124 33.4744C216.463 33.4744 216.735 33.5312 216.941 33.6449C217.149 33.7562 217.31 33.8864 217.424 34.0355C217.54 34.1847 217.63 34.3161 217.694 34.4297H217.758V31.7273H218.819V39H217.782V38.1513H217.694C217.63 38.2673 217.537 38.3999 217.417 38.549C217.298 38.6982 217.135 38.8284 216.927 38.9396C216.718 39.0509 216.448 39.1065 216.117 39.1065ZM216.351 38.201C216.657 38.201 216.915 38.1205 217.126 37.9595C217.339 37.7962 217.5 37.5701 217.608 37.2812C217.72 36.9924 217.775 36.6562 217.775 36.2727C217.775 35.8939 217.721 35.5625 217.612 35.2784C217.503 34.9943 217.343 34.773 217.133 34.6143C216.922 34.4557 216.662 34.3764 216.351 34.3764C216.032 34.3764 215.765 34.4593 215.552 34.625C215.339 34.7907 215.178 35.0168 215.069 35.3033C214.963 35.5897 214.91 35.9129 214.91 36.2727C214.91 36.6373 214.964 36.9652 215.073 37.2564C215.182 37.5476 215.343 37.7784 215.556 37.9489C215.771 38.117 216.037 38.201 216.351 38.201ZM223.067 39V31.7273H227.626V32.6719H224.164V34.8878H227.388V35.8288H224.164V38.0554H227.669V39H223.067ZM230.594 39.1207C230.248 39.1207 229.936 39.0568 229.657 38.929C229.377 38.7988 229.156 38.6106 228.993 38.3643C228.832 38.1181 228.751 37.8163 228.751 37.4588C228.751 37.151 228.81 36.8977 228.929 36.6989C229.047 36.5 229.207 36.3426 229.408 36.2266C229.609 36.1106 229.834 36.023 230.083 35.9638C230.331 35.9046 230.585 35.8596 230.843 35.8288C231.169 35.791 231.435 35.7602 231.638 35.7365C231.842 35.7105 231.99 35.669 232.082 35.6122C232.174 35.5554 232.221 35.4631 232.221 35.3352V35.3104C232.221 35.0002 232.133 34.7599 231.958 34.5895C231.785 34.419 231.527 34.3338 231.184 34.3338C230.826 34.3338 230.544 34.4131 230.338 34.5717C230.135 34.728 229.994 34.902 229.916 35.0938L228.918 34.8665C229.036 34.535 229.209 34.2675 229.436 34.0639C229.666 33.858 229.93 33.7088 230.228 33.6165C230.527 33.5218 230.84 33.4744 231.169 33.4744C231.387 33.4744 231.618 33.5005 231.862 33.5526C232.108 33.6023 232.338 33.6946 232.551 33.8295C232.766 33.9645 232.943 34.1574 233.08 34.4084C233.217 34.657 233.286 34.9801 233.286 35.3778V39H232.249V38.2543H232.206C232.138 38.3916 232.035 38.5265 231.897 38.6591C231.76 38.7917 231.584 38.9018 231.368 38.9893C231.153 39.0769 230.895 39.1207 230.594 39.1207ZM230.825 38.2685C231.118 38.2685 231.369 38.2105 231.578 38.0945C231.788 37.9785 231.948 37.8269 232.057 37.6399C232.168 37.4505 232.224 37.2481 232.224 37.0327V36.3295C232.186 36.3674 232.113 36.4029 232.004 36.4361C231.897 36.4669 231.775 36.4941 231.638 36.5178C231.501 36.5391 231.367 36.5592 231.237 36.5781C231.107 36.5947 230.998 36.6089 230.91 36.6207C230.704 36.6468 230.516 36.6906 230.346 36.7521C230.177 36.8137 230.042 36.9025 229.941 37.0185C229.841 37.1321 229.792 37.2836 229.792 37.473C229.792 37.7358 229.889 37.9347 230.083 38.0696C230.277 38.2022 230.524 38.2685 230.825 38.2685ZM237.246 33.5455V34.3977H234.267V33.5455H237.246ZM235.066 32.2386H236.128V37.3984C236.128 37.6044 236.158 37.7595 236.22 37.8636C236.282 37.9654 236.361 38.0353 236.458 38.0732C236.557 38.1087 236.665 38.1264 236.781 38.1264C236.866 38.1264 236.941 38.1205 237.005 38.1087C237.069 38.0968 237.118 38.0874 237.154 38.0803L237.346 38.9574C237.284 38.9811 237.197 39.0047 237.083 39.0284C236.969 39.0545 236.827 39.0687 236.657 39.071C236.377 39.0758 236.117 39.026 235.876 38.9219C235.634 38.8177 235.439 38.6567 235.29 38.4389C235.14 38.2211 235.066 37.9477 235.066 37.6186V32.2386ZM242.42 34.8771L241.458 35.0476C241.418 34.9245 241.354 34.8073 241.266 34.696C241.181 34.5848 241.065 34.4936 240.918 34.4226C240.771 34.3516 240.588 34.3161 240.368 34.3161C240.067 34.3161 239.816 34.3835 239.615 34.5185C239.414 34.651 239.313 34.8227 239.313 35.0334C239.313 35.2157 239.381 35.3625 239.515 35.4737C239.65 35.585 239.868 35.6761 240.169 35.7472L241.035 35.946C241.537 36.062 241.911 36.2408 242.157 36.4822C242.404 36.7237 242.527 37.0374 242.527 37.4233C242.527 37.75 242.432 38.0412 242.243 38.2969C242.056 38.5502 241.794 38.7491 241.458 38.8935C241.124 39.0379 240.737 39.1101 240.297 39.1101C239.686 39.1101 239.188 38.9799 238.802 38.7195C238.416 38.4567 238.179 38.0838 238.091 37.6009L239.118 37.4446C239.182 37.7121 239.313 37.9145 239.512 38.0518C239.711 38.1868 239.97 38.2543 240.29 38.2543C240.638 38.2543 240.916 38.1821 241.124 38.0376C241.332 37.8909 241.437 37.7121 241.437 37.5014C241.437 37.331 241.373 37.1877 241.245 37.0717C241.119 36.9557 240.926 36.8681 240.666 36.8089L239.743 36.6065C239.234 36.4905 238.857 36.3059 238.613 36.0526C238.372 35.7992 238.251 35.4785 238.251 35.0902C238.251 34.7682 238.341 34.4865 238.521 34.245C238.701 34.0036 238.95 33.8153 239.267 33.6804C239.584 33.5431 239.948 33.4744 240.357 33.4744C240.947 33.4744 241.411 33.6023 241.749 33.858C242.088 34.1113 242.311 34.451 242.42 34.8771ZM246.426 39V31.7273H249.089C249.605 31.7273 250.033 31.8125 250.371 31.983C250.71 32.151 250.963 32.3795 251.131 32.6683C251.299 32.9548 251.383 33.2779 251.383 33.6378C251.383 33.9408 251.328 34.1965 251.216 34.4048C251.105 34.6108 250.956 34.7765 250.769 34.902C250.584 35.0251 250.381 35.1151 250.158 35.1719V35.2429C250.4 35.2547 250.635 35.3329 250.865 35.4773C251.097 35.6193 251.289 35.8217 251.44 36.0845C251.592 36.3473 251.667 36.6669 251.667 37.0433C251.667 37.415 251.58 37.7488 251.405 38.0447C251.232 38.3383 250.964 38.5715 250.602 38.7443C250.24 38.9148 249.777 39 249.214 39H246.426ZM247.523 38.0589H249.107C249.633 38.0589 250.009 37.9571 250.236 37.7536C250.464 37.55 250.577 37.2955 250.577 36.9901C250.577 36.7604 250.519 36.5497 250.403 36.358C250.287 36.1662 250.122 36.0135 249.906 35.8999C249.693 35.7862 249.44 35.7294 249.146 35.7294H247.523V38.0589ZM247.523 34.8736H248.993C249.24 34.8736 249.461 34.8262 249.657 34.7315C249.856 34.6368 250.014 34.5043 250.13 34.3338C250.248 34.161 250.307 33.9574 250.307 33.723C250.307 33.4223 250.202 33.1702 249.991 32.9666C249.781 32.763 249.457 32.6612 249.022 32.6612H247.523V34.8736ZM256.339 36.7379V33.5455H257.404V39H256.36V38.0554H256.303C256.178 38.3466 255.977 38.5893 255.7 38.7834C255.425 38.9751 255.083 39.071 254.673 39.071C254.323 39.071 254.013 38.9941 253.743 38.8402C253.476 38.6839 253.265 38.4531 253.111 38.1477C252.959 37.8423 252.884 37.4647 252.884 37.0149V33.5455H253.945V36.8871C253.945 37.2588 254.048 37.5547 254.254 37.7749C254.46 37.995 254.728 38.1051 255.057 38.1051C255.256 38.1051 255.454 38.0554 255.65 37.956C255.849 37.8565 256.013 37.7062 256.144 37.505C256.276 37.3037 256.341 37.0481 256.339 36.7379ZM261.118 41.1591C260.685 41.1591 260.312 41.1023 259.999 40.9886C259.689 40.875 259.436 40.7247 259.239 40.5376C259.043 40.3506 258.896 40.1458 258.799 39.9233L259.712 39.5469C259.776 39.651 259.861 39.7611 259.967 39.8771C260.076 39.9955 260.223 40.0961 260.408 40.179C260.595 40.2618 260.835 40.3033 261.129 40.3033C261.531 40.3033 261.864 40.205 262.126 40.0085C262.389 39.8144 262.521 39.5043 262.521 39.0781V38.0057H262.453C262.389 38.1217 262.297 38.2507 262.176 38.3928C262.058 38.5348 261.894 38.6579 261.686 38.7621C261.478 38.8662 261.207 38.9183 260.873 38.9183C260.442 38.9183 260.054 38.8177 259.708 38.6165C259.365 38.4129 259.093 38.1134 258.891 37.718C258.692 37.3203 258.593 36.8314 258.593 36.2514C258.593 35.6714 258.691 35.1742 258.888 34.7599C259.087 34.3456 259.359 34.0284 259.705 33.8082C260.05 33.5857 260.442 33.4744 260.88 33.4744C261.219 33.4744 261.492 33.5312 261.7 33.6449C261.909 33.7562 262.071 33.8864 262.187 34.0355C262.305 34.1847 262.396 34.3161 262.46 34.4297H262.538V33.5455H263.579V39.1207C263.579 39.5895 263.47 39.9742 263.252 40.2749C263.034 40.5755 262.74 40.7981 262.368 40.9425C261.999 41.0869 261.582 41.1591 261.118 41.1591ZM261.107 38.0376C261.413 38.0376 261.671 37.9666 261.881 37.8246C262.094 37.6802 262.255 37.4742 262.364 37.2067C262.476 36.9368 262.531 36.6136 262.531 36.2372C262.531 35.8703 262.477 35.5471 262.368 35.2678C262.259 34.9884 262.099 34.7706 261.888 34.6143C261.678 34.4557 261.417 34.3764 261.107 34.3764C260.788 34.3764 260.521 34.4593 260.308 34.625C260.095 34.7884 259.934 35.0109 259.825 35.2926C259.719 35.5743 259.665 35.8892 259.665 36.2372C259.665 36.5947 259.72 36.9084 259.829 37.1783C259.938 37.4482 260.099 37.6589 260.312 37.8104C260.527 37.9619 260.792 38.0376 261.107 38.0376Z" fill="white"/>
</svg>
