<svg width="146" height="25" viewBox="0 0 146 25" fill="none" xmlns="http://www.w3.org/2000/svg">
<g clip-path="url(#clip0_1168_1750)">
<g clip-path="url(#clip1_1168_1750)">
<path d="M17.7339 1.78467H5.71608C3.136 1.78467 1.04443 3.92106 1.04443 6.55644V18.8319C1.04443 21.4672 3.136 23.6036 5.71608 23.6036H17.7339C20.314 23.6036 22.4056 21.4672 22.4056 18.8319V6.55644C22.4056 3.92106 20.314 1.78467 17.7339 1.78467Z" fill="#FBE700"/>
<path d="M8.37674 11.338C8.462 11.338 8.52537 11.3165 8.5895 11.2949L10.7133 10.1235C10.9261 10.0149 10.9895 9.73281 10.8831 9.51626C10.7767 9.29894 10.5006 9.23421 10.2886 9.34287L8.18586 10.5142C7.9731 10.579 7.86748 10.7963 7.90973 11.0128C7.9731 11.2302 8.18586 11.382 8.37674 11.338ZM11.6051 13.0519C11.6685 13.0519 11.7537 13.0304 11.8179 12.9872L15.1948 11.1215C15.3223 11.0568 15.4076 10.9042 15.4076 10.7524C15.4076 10.579 15.3442 10.4272 15.2167 10.3616C15.0681 10.2746 14.9195 10.2746 14.7708 10.3401L11.3938 12.2058C11.203 12.2929 11.0755 12.5094 11.1388 12.7267C11.1811 12.944 11.3938 13.0735 11.6058 13.0519H11.6051ZM4.10798 10.7955L9.94904 7.58505C10.2886 7.43324 10.6922 7.43324 11.0536 7.58505L13.9847 9.19028L14.6856 8.79957C15.047 8.64776 15.4498 8.64776 15.7901 8.79957L19.4221 10.7955L19.4643 10.8171L19.4221 10.8387L12.3279 14.7435C11.9665 14.9169 11.5636 14.9169 11.2233 14.7435L4.10798 10.7947V10.7955ZM12.306 17.8029C11.9665 17.9547 11.5628 17.9547 11.2226 17.8029L4.02197 13.7894V11.7935L10.7971 15.5249C11.3916 15.8285 12.1136 15.8285 12.7089 15.5249L19.5058 11.7935V13.7463L12.3052 17.8029H12.306Z" fill="#0505E5"/>
<path d="M43.6196 12.501C43.2394 12.2459 42.801 12.0633 42.3114 11.9554C42.5656 11.802 42.8003 11.6217 43.0115 11.4152C43.4136 11.0222 43.723 10.5729 43.9312 10.0812C44.1402 9.58801 44.2458 9.08864 44.2458 8.59697C44.2458 7.87566 44.0255 7.20289 43.5902 6.59718C43.1586 5.99608 42.469 5.50827 41.5388 5.14607C40.6289 4.79235 39.4565 4.61279 38.0539 4.61279C36.3594 4.61279 34.1428 4.80545 31.4659 5.18537L31.2396 5.21774L31.0781 7.16822L33.1597 7.63137V18.1806L31.1702 18.952L30.9521 20.7684H38.3218C39.8699 20.7684 41.1827 20.5572 42.2216 20.1411C43.2809 19.7172 44.0798 19.1192 44.5951 18.364C45.1119 17.6072 45.3745 16.7341 45.3745 15.7685C45.3745 15.1551 45.2274 14.5494 44.9369 13.9691C44.6442 13.3849 44.2021 12.8917 43.6204 12.5018L43.6196 12.501ZM41.0333 17.3275C40.8326 17.672 40.5557 17.9363 40.1875 18.1351C39.8194 18.3347 39.3788 18.4357 38.8786 18.4357H37.1516V13.546H38.696C39.2399 13.546 39.7175 13.6662 40.1159 13.9028C40.5172 14.1417 40.813 14.4523 41.019 14.8522C41.2264 15.2537 41.3313 15.6953 41.3313 16.1654C41.3313 16.5969 41.231 16.9876 41.0318 17.3283L41.0333 17.3275ZM40.1076 10.5906C39.9529 10.9104 39.7137 11.1871 39.3976 11.4129H37.1523V6.85457C37.3319 6.83145 37.5039 6.82066 37.6661 6.82066C38.6213 6.82066 39.3161 7.05031 39.7303 7.50267C40.1559 7.96659 40.3626 8.5515 40.3626 9.29054C40.3626 9.80379 40.2766 10.2415 40.1076 10.5914V10.5906Z" fill="#0505E5"/>
<path d="M56.9538 18.0605C56.8044 17.9719 56.6966 17.8463 56.6241 17.676C56.5434 17.4871 56.5027 17.2036 56.5027 16.8329V9.60587L55.878 8.93311L51.5632 9.40627L51.232 11.7112L52.9348 12.4549V17.0255C52.7145 17.2244 52.4934 17.3762 52.2777 17.4771C52.0423 17.5866 51.748 17.6428 51.4025 17.6428C51.0222 17.6428 50.7484 17.5103 50.565 17.2375C50.4247 17.0286 50.258 16.577 50.258 15.6076V9.6498L49.5948 8.99013L45.4128 9.27373L45.0469 11.3305L46.666 12.3409V17.1681C46.666 18.5499 46.9202 19.5255 47.4438 20.1512C47.9719 20.7824 48.8056 21.1022 49.923 21.1022C50.6397 21.1022 51.3255 20.9188 51.96 20.5574C52.4346 20.2869 52.8518 19.9239 53.2041 19.4762C53.2856 19.9347 53.4939 20.3084 53.8273 20.5897C54.2498 20.9465 54.8255 21.1276 55.5377 21.1276C55.967 21.1276 56.388 21.086 56.7886 21.0043C57.1862 20.9226 57.6117 20.7955 58.0523 20.6259L58.2138 20.5643L58.4605 18.5784L57.7875 18.3872C57.4156 18.2786 57.1357 18.1699 56.9553 18.0628L56.9538 18.0605Z" fill="#0505E5"/>
<path d="M73.5045 17.5358C73.4653 17.5597 73.374 17.6113 73.2306 17.6907C73.0956 17.7655 72.919 17.8394 72.7063 17.9119C72.5063 17.9797 72.3026 18.0144 72.0997 18.0144C71.5323 18.0144 71.1362 17.8926 70.9235 17.6522C70.7032 17.404 70.5915 16.9532 70.5915 16.3144L70.6141 11.8485H73.8825L74.0439 9.50426H70.6519V6.7793H68.906L68.8208 6.90414C68.4036 7.51525 67.926 8.10093 67.4024 8.64346L67.0033 9.05652C66.7287 9.34089 66.3469 9.50426 65.9561 9.50426H62.9578V6.7793H61.212L61.1268 6.90414C60.7095 7.51525 60.232 8.10093 59.7084 8.64346C59.1855 9.18522 58.6476 9.64991 58.1082 10.026L57.9829 10.1131V11.8108H59.3515L59.3168 17.028C59.3085 17.9951 59.4194 18.7788 59.6465 19.3568C59.8864 19.9672 60.2644 20.4103 60.7707 20.6731C61.2543 20.9243 61.8895 21.0514 62.6591 21.0514C63.5041 21.0514 64.2668 20.8642 64.9255 20.495C65.5789 20.1282 66.107 19.662 66.494 19.1079L66.5725 18.9954L66.1356 17.3354L65.8105 17.535C65.7712 17.5589 65.68 17.6106 65.5366 17.6899C65.4016 17.7647 65.225 17.8387 65.0123 17.9111C64.8123 17.9789 64.6086 18.0136 64.4057 18.0136C63.8383 18.0136 63.4422 17.8918 63.2295 17.6514C63.0092 17.4033 62.8975 16.9524 62.8975 16.3136L62.9201 11.8447L66.1168 11.8108H67.0455L67.0108 17.028C67.0025 17.9951 67.1134 18.7788 67.3405 19.3568C67.5805 19.9672 67.9584 20.4103 68.4647 20.6731C68.9483 20.9243 69.5836 21.0514 70.3531 21.0514C71.1981 21.0514 71.9609 20.8642 72.6195 20.495C73.2729 20.1282 73.801 19.662 74.188 19.1079L74.2665 18.9954L73.8297 17.3354L73.5045 17.535V17.5358Z" fill="#0505E5"/>
<path d="M83.4359 17.6018C82.987 17.843 82.5487 18.0018 82.1322 18.0742C81.7022 18.1497 81.2185 18.1875 80.6949 18.1875C79.8628 18.1875 79.2562 17.9424 78.8405 17.4369C78.4685 16.9845 78.2392 16.412 78.1569 15.7307L83.5446 15.609L83.5936 15.3855C83.6449 15.152 83.6962 14.8021 83.7505 14.3143C83.8048 13.828 83.8313 13.489 83.8313 13.2778C83.8313 12.3808 83.6773 11.5816 83.3748 10.9019C83.0662 10.2091 82.6203 9.66738 82.0507 9.29131C81.4804 8.91524 80.8119 8.72412 80.0642 8.72412C79.1407 8.72412 78.2392 8.99924 77.3844 9.54176C76.5341 10.082 75.8317 10.8488 75.2968 11.8205C74.7618 12.7938 74.4902 13.9174 74.4902 15.1597C74.4902 16.4019 74.7166 17.5055 75.164 18.4017C75.6159 19.3072 76.2361 19.9993 77.0086 20.4601C77.7774 20.9179 78.6466 21.1498 79.5904 21.1498C80.403 21.1498 81.2178 21.0065 82.013 20.7244C82.8203 20.4378 83.494 20.0131 84.0169 19.4621L84.1187 19.355L83.7822 17.4138L83.4352 17.5995L83.4359 17.6018ZM78.3237 12.5996C78.4549 12.1835 78.6232 11.866 78.8254 11.6564C79.0057 11.4691 79.1883 11.3782 79.3852 11.3782C79.7496 11.3782 79.9963 11.5023 80.1623 11.7689C80.3494 12.071 80.4445 12.4948 80.4445 13.0304C80.4445 13.1406 80.4384 13.2832 80.4271 13.4558C80.4241 13.509 80.4196 13.5529 80.4158 13.5907L78.1101 13.8211C78.1418 13.361 78.2128 12.951 78.3237 12.5996Z" fill="#0505E5"/>
<path d="M92.4212 8.81152C91.7452 8.81152 91.1107 9.08047 90.5373 9.61221C90.2084 9.91738 89.9194 10.3158 89.6735 10.8028L89.7972 9.56906L89.2321 8.97259L84.9226 9.41801L84.608 11.3793L86.4844 12.1738V18.1393L84.6918 18.7989L84.4292 20.7564H92.6355L92.8264 18.5323L89.9428 17.9335V14.5389C90.0703 13.9748 90.2823 13.5101 90.5728 13.1587C91.1522 12.4574 91.9248 12.5406 92.886 13.1671L93.0633 13.2827L93.224 13.1448C93.5959 12.8265 93.8909 12.4774 94.1007 12.1068C94.3195 11.7199 94.4304 11.2768 94.4304 10.7897C94.4304 10.2333 94.2455 9.76017 93.8811 9.38256C93.5152 9.00418 93.0241 8.81229 92.422 8.81229L92.4212 8.81152Z" fill="#0505E5"/>
<path d="M108.733 16.7574C108.158 17.1867 107.517 17.5435 106.828 17.8171C106.149 18.0875 105.427 18.2247 104.682 18.2247C103.664 18.2247 102.76 17.9851 101.992 17.5111C101.228 17.0403 100.623 16.3359 100.193 15.4181C99.7569 14.4887 99.5358 13.3474 99.5358 12.0265C99.5358 10.8906 99.7056 9.91035 100.04 9.11351C100.367 8.33363 100.835 7.73793 101.43 7.34259C102.027 6.94649 102.737 6.74535 103.542 6.74535C104.1 6.74535 104.63 6.8463 105.114 7.04667C105.562 7.23085 105.915 7.47591 106.164 7.77492L106.823 10.7041L108.896 10.9969L109.297 5.84756L109.174 5.75046C108.65 5.33817 107.913 5.01451 106.98 4.78717C106.064 4.56368 105.152 4.45117 104.27 4.45117C102.21 4.45117 100.483 4.90045 99.1367 5.78591C97.7907 6.67137 96.7986 7.80035 96.189 9.14125C95.5839 10.4698 95.2769 11.8408 95.2769 13.2164C95.2769 14.8478 95.6209 16.2727 96.2984 17.4518C96.9789 18.6362 97.9461 19.5502 99.1714 20.1675C100.386 20.7794 101.816 21.0892 103.421 21.0892C104.327 21.0892 105.205 20.9597 106.033 20.7054C106.858 20.4511 107.593 20.122 108.217 19.7259C108.845 19.3283 109.345 18.9106 109.701 18.4852L109.821 18.3434L109.016 16.5463L108.733 16.7574H108.733Z" fill="#0505E5"/>
<path d="M129.189 7.29033L131.15 6.73239L131.381 4.77344H124.82L123.926 7.21943L121.369 14.3177L119.103 7.4406L118.124 4.77344H111.542L111.345 6.71929L113.572 7.34042L112.814 18.0746L110.789 18.8498L110.525 20.7672H117.383L117.674 18.789L115.764 18.1385L116.234 11.0957L119.391 20.6493L122.284 20.2455L125.563 10.8483L126.101 18.1008L124.469 18.8622L124.175 20.7672H131.912L132.107 18.7751L129.9 18.1208L129.189 7.29033Z" fill="#0505E5"/>
<path d="M143.837 13.5426C143.393 12.903 142.853 12.3766 142.235 11.9782C141.637 11.5937 140.847 11.1629 139.887 10.6966C139.188 10.3645 138.637 10.0786 138.249 9.84817C137.882 9.63008 137.573 9.37268 137.328 9.08138C137.105 8.81629 136.997 8.52345 136.997 8.18745C136.997 7.69656 137.124 7.33436 137.386 7.08082C137.652 6.82189 138.002 6.69627 138.456 6.69627C138.867 6.69627 139.28 6.80801 139.685 7.02764C140.066 7.23417 140.344 7.46999 140.513 7.72815L140.929 9.92985L143.081 10.2851L143.288 7.74048C143.406 6.28475 143.422 6.02197 143.422 5.95723V5.82623L143.327 5.73914C142.916 5.36462 142.305 5.05559 141.511 4.82209C140.733 4.59244 139.983 4.47607 139.28 4.47607C138.284 4.47607 137.329 4.66488 136.437 5.03633C135.532 5.41317 134.787 5.98652 134.22 6.73943C133.645 7.50236 133.355 8.43097 133.355 9.50061C133.355 10.4238 133.577 11.2237 134.017 11.8772C134.445 12.5138 134.963 13.0309 135.556 13.4147C136.124 13.7823 136.878 14.1961 137.799 14.6454C138.437 14.9552 138.942 15.2203 139.299 15.433C139.637 15.6341 139.923 15.8714 140.147 16.1389C140.349 16.3793 140.448 16.6475 140.448 16.958C140.448 17.294 140.365 17.5745 140.194 17.8142C140.017 18.0631 139.787 18.2488 139.492 18.3814C139.191 18.517 138.866 18.5856 138.528 18.5856C138.04 18.5856 137.567 18.4762 137.123 18.2612C136.708 18.0593 136.389 17.8057 136.176 17.5075L135.662 15.0515L133.462 14.7147L133.153 19.0249L133.214 19.1112C133.616 19.6838 134.281 20.1593 135.19 20.5261C136.081 20.8844 137.101 21.0663 138.224 21.0663C139.16 21.0663 140.12 20.8783 141.078 20.5084C142.048 20.1331 142.871 19.5558 143.522 18.7914C144.188 18.0092 144.526 17.042 144.526 15.9177C144.526 15.0014 144.295 14.203 143.837 13.5434L143.837 13.5426Z" fill="#0505E5"/>
</g>
</g>
<defs>
<clipPath id="clip0_1168_1750">
<rect width="146" height="24" fill="white" transform="translate(0 0.749512)"/>
</clipPath>
<clipPath id="clip1_1168_1750">
<rect width="144.857" height="22.6667" fill="white" transform="translate(0.356934 1.36084)"/>
</clipPath>
</defs>
</svg>
