<svg xmlns="http://www.w3.org/2000/svg" width="1080" height="1080" viewBox="0 0 1080 1080">
    <rect width="1080" height="1080" fill="#0F0F12"/>
    <rect x="0" y="0" width="1080" height="6" fill="#4F46E5"/>
    <g transform="translate(64,56) scale(0.9)">
    <rect width="80" height="80" rx="14" fill="#4F46E5"/>
    <path d="M12 10L12 36" stroke="white" stroke-width="6.5" stroke-linecap="round" stroke-linejoin="round" fill="none"/><path d="M12 10L68 36" stroke="white" stroke-width="6.5" stroke-linecap="round" stroke-linejoin="round" fill="none"/><path d="M68 10L68 36" stroke="white" stroke-width="6.5" stroke-linecap="round" stroke-linejoin="round" fill="none"/><path d="M12 46L12 70" stroke="white" stroke-width="6.5" stroke-linecap="round" stroke-linejoin="round" fill="none"/><path d="M12 46L36 46" stroke="white" stroke-width="6.5" stroke-linecap="round" stroke-linejoin="round" fill="none"/><path d="M12 58L31 58" stroke="white" stroke-width="6.5" stroke-linecap="round" stroke-linejoin="round" fill="none"/><path d="M12 70L36 70" stroke="white" stroke-width="6.5" stroke-linecap="round" stroke-linejoin="round" fill="none"/><path d="M44 70L56 46L68 70" stroke="white" stroke-width="6.5" stroke-linecap="round" stroke-linejoin="round" fill="none"/><path d="M49 60L63 60" stroke="white" stroke-width="6.5" stroke-linecap="round" stroke-linejoin="round" fill="none"/>
  </g>
    <text x="1016" y="102" text-anchor="end" font-family="'Segoe UI', Arial, sans-serif" font-size="26" fill="#A1A1AA">5 / 9</text>
    <line x1="64" y1="984" x2="1016" y2="984" stroke="#2A2A30" stroke-width="2"/>
    <text x="64" y="1028" font-family="'Segoe UI', Arial, sans-serif" font-size="24" fill="#A1A1AA">Emadamerho-Atori Nefe</text>
    <text x="1016" y="1028" text-anchor="end" font-family="'Segoe UI', Arial, sans-serif" font-size="24" fill="#818CF8">Content marketer &amp; SEO manager</text>
    <text x="64" y="240" font-family="'Segoe UI', Arial, sans-serif" font-size="26" font-weight="600" letter-spacing="6" fill="#818CF8">PERFORMANCE</text>
    <text x="64" y="330" font-family="Georgia, 'Times New Roman', serif" font-size="76" font-weight="bold" fill="#F4F4F5">It optimizes without</text><text x="64" y="419.68" font-family="Georgia, 'Times New Roman', serif" font-size="76" font-weight="bold" fill="#F4F4F5">being asked twice.</text>
    
      <rect x="64" y="480" width="952" height="76" rx="16" fill="#1A1A1F" stroke="#2A2A30" stroke-width="2"/>
      <circle cx="112" cy="518" r="7" fill="#818CF8"/>
      <text x="148" y="529" font-family="'Segoe UI', Arial, sans-serif" font-size="30" fill="#F4F4F5">Found + removed 5 dead dependencies</text>
      <rect x="64" y="574" width="952" height="76" rx="16" fill="#1A1A1F" stroke="#2A2A30" stroke-width="2"/>
      <circle cx="112" cy="612" r="7" fill="#818CF8"/>
      <text x="148" y="623" font-family="'Segoe UI', Arial, sans-serif" font-size="30" fill="#F4F4F5">Trimmed server payloads (no over-serialization)</text>
      <rect x="64" y="668" width="952" height="76" rx="16" fill="#1A1A1F" stroke="#2A2A30" stroke-width="2"/>
      <circle cx="112" cy="706" r="7" fill="#818CF8"/>
      <text x="148" y="717" font-family="'Segoe UI', Arial, sans-serif" font-size="30" fill="#F4F4F5">Scroll bar re-done: zero re-renders while scrolling</text>
      <rect x="64" y="762" width="952" height="76" rx="16" fill="#1A1A1F" stroke="#2A2A30" stroke-width="2"/>
      <circle cx="112" cy="800" r="7" fill="#818CF8"/>
      <text x="148" y="811" font-family="'Segoe UI', Arial, sans-serif" font-size="30" fill="#F4F4F5">Honest image size hints — no more 2x downloads</text>
      <rect x="64" y="856" width="952" height="76" rx="16" fill="#1A1A1F" stroke="#2A2A30" stroke-width="2"/>
      <circle cx="112" cy="894" r="7" fill="#818CF8"/>
      <text x="148" y="905" font-family="'Segoe UI', Arial, sans-serif" font-size="30" fill="#F4F4F5">Auto-WebP imports: 1.3MB PNG → 93KB</text></svg>